<svg
   xmlns:dc="http://purl.org/dc/elements/1.1/"
   xmlns:cc="http://creativecommons.org/ns#"
   xmlns:rdf="http://www.w3.org/1999/02/22-rdf-syntax-ns#"
   xmlns:svg="http://www.w3.org/2000/svg"
   xmlns="http://www.w3.org/2000/svg"
   xmlns:sodipodi="http://sodipodi.sourceforge.net/DTD/sodipodi-0.dtd"
   xmlns:inkscape="http://www.inkscape.org/namespaces/inkscape"
   version="1.1"
   id="Layer_1"
   x="0px"
   y="0px"
   viewBox="0 0 334.15997 241.26743"
   xml:space="preserve"
   width="334.15997"
   height="241.26743"><metadata
     id="metadata71"><rdf:RDF><cc:Work
         rdf:about=""><dc:format>image/svg+xml</dc:format><dc:type
           rdf:resource="http://purl.org/dc/dcmitype/StillImage" /><dc:title /></cc:Work></rdf:RDF></metadata><defs
     id="defs69" /><sodipodi:namedview
     pagecolor="#ffffff"
     bordercolor="#666666"
     borderopacity="1"
     objecttolerance="10"
     gridtolerance="10"
     guidetolerance="10"
     inkscape:pageopacity="0"
     inkscape:pageshadow="2"
     inkscape:window-width="3840"
     inkscape:window-height="2019"
     id="namedview67"
     showgrid="false"
     inkscape:zoom="5.2871984"
     inkscape:cx="90.072668"
     inkscape:cy="115.73033"
     inkscape:window-x="-14"
     inkscape:window-y="76"
     inkscape:window-maximized="1"
     inkscape:current-layer="g47"
     fit-margin-top="0"
     fit-margin-left="0"
     fit-margin-right="0"
     fit-margin-bottom="0" /><g
     id="g8"
     transform="translate(-85.291121,-131.9)"><path
       style="fill:#acb3ba"
       d="m 382,162.4 h -63.8 v -28.2 c 0,-1.3 1,-2.3 2.3,-2.3 h 59.1 c 1.3,0 2.3,1 2.3,2.3 v 28.2 z"
       id="path4"
       inkscape:connector-curvature="0" /><path
       style="fill:#acb3ba"
       d="M 186.8,162.4 H 123 v -28.2 c 0,-1.3 1,-2.3 2.3,-2.3 h 59.2 c 1.3,0 2.3,1 2.3,2.3 z"
       id="path6"
       inkscape:connector-curvature="0" /></g><path
     style="fill:#1a1a1a"
     d="m 333.20888,193.2 -5.2,-23.8 c -4.4,-20 -4,-40.9 1.9,-60.4 1.9,-6.4 3,-13.1 3.2,-20.1 0.7,-40.3 -31.9,-74.3 -72.2,-75.2 -9.6,-0.2 -18.8,1.4 -27.3,4.6 -15.9,5.9 -32.5,9.5 -49.5,9.5 h -32.2 c -16.9,0 -33.6,-3.6 -49.5,-9.5 -8.500001,-3.1 -17.700001,-4.8 -27.300001,-4.6 -40.3,0.9 -73.0000003,34.8 -72.2000003,75.2 0.1,7 1.2,13.8 3.2,20.1 6.0000003,19.6 6.3000003,40.4 1.9,60.4 L 0.90887871,201.7 C -3.7911213,223 10.208879,240.4 32.008879,240.4 v 0 c 17.9,0 39.2,-13.1 47.2,-29.2 l 15.6,-31.3 c 4.9,2.6 10.400001,4 16.300001,4 19.4,0 35,-15.7 35,-35 0,-0.6 -0.1,-1.1 -0.1,-1.6 h 41.8 c 0,0.5 -0.1,1.1 -0.1,1.6 0,19.4 15.7,35 35,35 6.5,0 12.5,-1.8 17.7,-4.8 l 20.4,40.8 c 8.4,16.7 27.6,25.2 45.7,19.7 19.9,-5.8 31.1,-26.5 26.7,-46.4 z"
     id="path10"
     inkscape:connector-curvature="0" /><g
     id="g16"
     transform="translate(-85.291121,-131.9)"><circle
       style="fill:#acb3ba"
       cx="308"
       cy="280.79999"
       r="19.5"
       id="circle12" /><circle
       style="fill:#acb3ba"
       cx="196.3"
       cy="280.79999"
       r="19.5"
       id="circle14" /></g><g
     id="g47"
     transform="rotate(-50,158.65898,-121.7168)"><circle
       id="circle18"
       r="16.799999"
       cy="103.48177"
       cx="49.827381"
       style="fill:#84dbff" /><circle
       id="circle20"
       r="16.799999"
       cy="64.201576"
       cx="95.792763"
       style="fill:#ffd05b" /><circle
       id="circle22"
       r="16.799999"
       cy="63.055775"
       cx="54.921345"
       style="fill:#4cdbc4" /><circle
       id="circle24"
       r="16.799999"
       cy="103.56302"
       cx="91.551369"
       style="fill:#ff7058" /></g><g
     id="g41"
     transform="translate(-191.24472,2.6479051)"><path
       style="fill:#4cdbc4"
       d="m 280.90888,48.5 -15,15 c -2.6,2.6 -6.7,2.6 -9.3,0 l -15,-15 c -3.3,-3.3 -2.2,-8.8 2.1,-10.7 11.2,-4.8 23.9,-4.8 35.1,0 4.3,1.9 5.4,7.4 2.1,10.7 z"
       id="path26"
       inkscape:connector-curvature="0" /><path
       style="fill:#4cdbc4"
       d="m 231.60888,58.7 15,15 c 2.6,2.6 2.6,6.7 0,9.3 l -15,15 c -3.3,3.3 -8.8,2.2 -10.7,-2.1 -4.8,-11.2 -4.8,-23.9 0,-35.1 1.9,-4.3 7.4,-5.4 10.7,-2.1 z"
       id="path28"
       inkscape:connector-curvature="0" /><path
       style="fill:#4cdbc4"
       d="m 266.00888,93 15,15 c 3.3,3.3 2.2,8.8 -2.1,10.7 -11.2,4.8 -23.9,4.8 -35,0 -4.3,-1.8 -5.3,-7.4 -2.1,-10.7 l 15,-15 c 2.5,-2.5 6.6,-2.5 9.2,0 z"
       id="path30"
       inkscape:connector-curvature="0" /><path
       style="fill:#4cdbc4"
       d="m 291.10888,97.9 -15,-15 c -2.6,-2.6 -2.6,-6.7 0,-9.3 l 15,-15 c 3.3,-3.3 8.8,-2.2 10.7,2.1 4.8,11.2 4.8,23.9 0,35.1 -1.9,4.3 -7.4,5.4 -10.7,2.1 z"
       id="path32"
       inkscape:connector-curvature="0" /></g><g
     id="g36"
     transform="translate(-85.291121,-131.9)" /><g
     id="g38"
     transform="translate(-85.291121,-131.9)" /><g
     id="g40"
     transform="translate(-85.291121,-131.9)" /><g
     id="g42"
     transform="translate(-85.291121,-131.9)" /><g
     id="g44"
     transform="translate(-85.291121,-131.9)" /><g
     id="g46"
     transform="translate(-85.291121,-131.9)" /><g
     id="g48"
     transform="translate(-85.291121,-131.9)" /><g
     id="g50"
     transform="translate(-85.291121,-131.9)" /><g
     id="g52"
     transform="translate(-85.291121,-131.9)" /><g
     id="g54"
     transform="translate(-85.291121,-131.9)" /><g
     id="g56"
     transform="translate(-85.291121,-131.9)" /><g
     id="g58"
     transform="translate(-85.291121,-131.9)" /><g
     id="g60"
     transform="translate(-85.291121,-131.9)" /><g
     id="g62"
     transform="translate(-85.291121,-131.9)" /><g
     id="g64"
     transform="translate(-85.291121,-131.9)" /></svg>